<?xml version="1.0" encoding="UTF-8"?>
<svg version="1.1" xmlns="http://www.w3.org/2000/svg" width="239" height="240">
<path d="M0 0 C2.46190873 1.06792828 3.8754043 2.3592773 5.76818848 4.26306152 C6.48606033 4.97793228 7.20393219 5.69280304 7.94355774 6.42933655 C8.71028305 7.20840866 9.47700836 7.98748077 10.26696777 8.79016113 C11.06595993 9.59102646 11.86495209 10.39189178 12.68815613 11.21702576 C14.38029384 12.91589022 16.06882769 14.6183507 17.75402832 16.32409668 C20.31388228 18.91487084 22.88402736 21.49504639 25.4564209 24.07336426 C27.10222306 25.72834702 28.74742443 27.38392749 30.39196777 29.04016113 C31.15262039 29.80506363 31.91327301 30.56996613 32.69697571 31.35804749 C33.42430405 32.09498337 34.15163239 32.83191925 34.90100098 33.59118652 C35.84553886 34.54596642 35.84553886 34.54596642 36.80915833 35.52003479 C38.70263531 37.53332259 40.51214724 39.58472995 42.31718445 41.67643738 C45.88795148 45.77719501 49.6633676 49.61623056 53.54040527 53.42590332 C54.61236397 54.48603386 54.61236397 54.48603386 55.70597839 55.56758118 C57.24251936 57.08704959 58.78011123 58.60545591 60.31866455 60.12288666 C63.58714025 63.34906172 66.84611214 66.58476668 70.10571289 69.81990433 C76.16240855 75.83093318 82.22298543 81.83792091 88.29968262 87.82873535 C92.53947663 92.0093302 96.76712185 96.20187075 100.98684692 100.40271759 C102.59639154 102.00048963 104.21046986 103.59370765 105.82907104 105.18230438 C108.08165074 107.39412476 110.31844652 109.62080038 112.55212402 111.85168457 C113.2273259 112.50733902 113.90252777 113.16299347 114.59819031 113.83851624 C115.20093277 114.44668686 115.80367523 115.05485748 116.42468262 115.68145752 C116.95483978 116.2057069 117.48499695 116.72995628 118.03121948 117.27009201 C119.02868652 118.88000488 119.02868652 118.88000488 118.97488117 120.77181911 C117.65348454 123.71598031 115.7707556 125.52243354 113.49357605 127.80952454 C113.01776826 128.29142343 112.54196047 128.77332232 112.05173427 129.26982421 C110.45438397 130.8838331 108.84649775 132.48691081 107.23840332 134.09020996 C106.09144078 135.24451098 104.94510363 136.3994337 103.79934692 137.55493164 C100.68456629 140.69195561 97.56018087 143.8192431 94.43331504 146.94421601 C91.8261559 149.55125562 89.22334877 152.16261915 86.62042361 154.77388495 C80.48239459 160.93115668 74.33621384 167.08020879 68.18518066 173.2244873 C61.83197199 179.5710479 55.49368269 185.93223797 49.16235799 192.30062371 C43.73093195 197.76269055 38.28994356 203.21510147 32.84122592 208.65991896 C29.58474263 211.91432965 26.3321904 215.17244564 23.08896446 218.44007301 C20.04090288 221.51030742 16.98113945 224.56836623 13.91179276 227.6173172 C12.78514065 228.74054291 11.66277351 229.86808491 10.54497337 231.00012016 C9.02279707 232.54034156 7.48616874 234.06447818 5.94474792 235.58540344 C5.08693568 236.44392819 4.22912344 237.30245295 3.34531689 238.1869936 C1.02868652 239.88000488 1.02868652 239.88000488 -0.97047234 239.93186188 C-3.76061836 238.46506146 -5.66527989 236.57075955 -7.90083313 234.34489441 C-8.38273202 233.86908662 -8.86463091 233.39327883 -9.3611328 232.90305263 C-10.97514169 231.30570233 -12.57821941 229.69781611 -14.18151855 228.08972168 C-15.33581957 226.94275914 -16.49074229 225.79642199 -17.64624023 224.65066528 C-20.7832642 221.53588465 -23.9105517 218.41149923 -27.03552461 215.2846334 C-29.64256422 212.67747426 -32.25392775 210.07466713 -34.86519355 207.47174197 C-41.02246528 201.33371295 -47.17151738 195.1875322 -53.3157959 189.03649902 C-59.66235649 182.68329034 -66.02354656 176.34500105 -72.39193231 170.01367635 C-77.85399914 164.58225031 -83.30641007 159.14126192 -88.75122756 153.69254428 C-92.00563824 150.43606099 -95.26375424 147.18350876 -98.53138161 143.94028282 C-101.60161601 140.89222124 -104.65967483 137.83245781 -107.70862579 134.76311111 C-108.83185151 133.63645901 -109.95939351 132.51409187 -111.09142876 131.39629173 C-112.63165016 129.87411543 -114.15578677 128.3374871 -115.67671204 126.79606628 C-116.53523679 125.93825404 -117.39376154 125.0804418 -118.27830219 124.19663525 C-119.97131348 121.88000488 -119.97131348 121.88000488 -119.92937183 119.78452396 C-118.83663924 117.61228668 -117.66389095 116.20612988 -115.9369812 114.49163818 C-115.28941864 113.84139679 -114.64185608 113.1911554 -113.97467041 112.52120972 C-113.2599054 111.81880157 -112.54514038 111.11639343 -111.80871582 110.3927002 C-111.05903534 109.64418793 -110.30935486 108.89567566 -109.53695679 108.1244812 C-107.05061014 105.64533611 -104.55391547 103.17688025 -102.05725098 100.70812988 C-100.32594479 98.98496125 -98.59537411 97.26105333 -96.86550903 95.53643799 C-92.30101801 90.98909125 -87.72804812 86.45037121 -83.15283203 81.91381836 C-75.8489004 74.66897643 -68.55741984 67.4116105 -61.26671219 60.15346527 C-58.72424658 57.62489595 -56.17796173 55.10022399 -53.631073 52.57611084 C-52.0573869 51.01245822 -50.48378435 49.44872152 -48.91027832 47.8848877 C-48.20765869 47.19057648 -47.50503906 46.49626526 -46.78112793 45.78091431 C-42.8435598 41.8608913 -39.10806457 37.82826049 -35.47929382 33.62081718 C-33.81052058 31.69438559 -32.08343679 29.84160045 -30.3026123 28.01843262 C-29.36177544 27.05350136 -29.36177544 27.05350136 -28.40193176 26.06907654 C-25.60284717 23.224762 -22.80124148 20.38306741 -19.99108887 17.54968262 C-18.50885098 16.05072221 -17.03202151 14.54639599 -15.5604248 13.0369873 C-13.42411873 10.8462621 -11.27213776 8.67213151 -9.11584473 6.50109863 C-8.1298101 5.48105995 -8.1298101 5.48105995 -7.12385559 4.44041443 C-6.50608749 3.82549637 -5.8883194 3.21057831 -5.25183105 2.57702637 C-4.44411003 1.75717506 -4.44411003 1.75717506 -3.62007141 0.92076111 C-1.97131348 -0.11999512 -1.97131348 -0.11999512 0 0 Z " fill="#DE011B" transform="translate(119.9713134765625,0.1199951171875)"/>
<path d="M0 0 C4.11115872 1.4433519 5.99590824 2.95063228 8.68359375 6.421875 C10.80950314 8.97044294 13.43130839 10.91293807 16 13 C18.875 15.6875 18.875 15.6875 21 18 C21 18.66 21 19.32 21 20 C21.5775 20.226875 22.155 20.45375 22.75 20.6875 C25.57914534 22.33783478 26.98274596 24.43258577 29 27 C29.763125 27.598125 30.52625 28.19625 31.3125 28.8125 C33.6720628 30.73307437 35.419715 32.56977585 37.375 34.875 C40.23219893 38.24084314 43.24875633 41.04627421 46.71484375 43.7734375 C47.13894531 44.17820313 47.56304687 44.58296875 48 45 C48 45.66 48 46.32 48 47 C48.99 47.33 49.98 47.66 51 48 C52.70884005 49.62339805 54.37446717 51.29319053 56 53 C56.598125 53.556875 57.19625 54.11375 57.8125 54.6875 C59 56 59 56 59 58 C59.66 58 60.32 58 61 58 C61 58.66 61 59.32 61 60 C61.66 60 62.32 60 63 60 C64.35386936 61.65002828 65.68678142 63.3174387 67 65 C67.66 65.33 68.32 65.66 69 66 C69 66.66 69 67.32 69 68 C69.99 68.33 70.98 68.66 72 69 C72 69.66 72 70.32 72 71 C72.66 71 73.32 71 74 71 C74 71.66 74 72.32 74 73 C74.556875 73.226875 75.11375 73.45375 75.6875 73.6875 C79.59432787 75.90488879 82.30880747 79.12030041 85.0625 82.625 C86.88763608 85.05671298 86.88763608 85.05671298 89.25 86.6875 C89.8275 87.120625 90.405 87.55375 91 88 C91 88.66 91 89.32 91 90 C91.639375 90.268125 92.27875 90.53625 92.9375 90.8125 C95 92 95 92 96 95 C96.99 95.33 97.98 95.66 99 96 C99 96.66 99 97.32 99 98 C99.66 98 100.32 98 101 98 C102.20091221 99.43442292 103.39713842 100.87328971 104.55859375 102.33984375 C106.02705535 104.03116131 107.55905817 105.36134039 109.3125 106.75 C110.199375 107.4925 111.08625 108.235 112 109 C112 109.66 112 110.32 112 111 C39.07 111 -33.86 111 -109 111 C-107.12229515 107.24459029 -105.61306477 105.36572738 -102.69735718 102.45684814 C-101.79429337 101.551035 -100.89122955 100.64522186 -99.96080017 99.71195984 C-98.95752037 98.71575778 -97.95414497 97.71965198 -96.95068359 96.72363281 C-95.8957852 95.66929867 -94.84132723 94.61452372 -93.78727722 93.55934143 C-90.92624565 90.6977359 -88.0590883 87.84233993 -85.19079924 84.98801136 C-82.19366458 82.0033768 -79.20219042 79.01307984 -76.21011353 76.02337646 C-70.54408256 70.36356237 -64.8729725 64.70886597 -59.20002425 59.05598617 C-52.74150354 52.61981797 -46.28865902 46.17797174 -39.83628726 39.73564005 C-26.56383508 26.48409457 -13.28426419 13.23970374 0 0 Z " fill="#F5F3F5" transform="translate(119,9)"/>
<path d="M0 0 C0.33 0 0.66 0 1 0 C1.12375 1.7015625 1.12375 1.7015625 1.25 3.4375 C1.76652951 7.70646447 3.20736914 11.1660425 5.0625 15.01953125 C7.21169244 19.55970028 7.08078733 23.07197301 7 28 C9.34058637 25.87219421 10.70700306 23.88437779 12 21 C15.01714173 26.02856955 15.37402531 29.29611395 15 35 C14.67 35.99 14.34 36.98 14 38 C15.98 36.35 17.96 34.7 20 33 C20.40368295 39.45892714 19.5915262 44.06108578 17 50 C19.62901288 48.47793991 21.84365964 47.15634036 24 45 C25.55090815 46.55090815 25.20677311 48.03696233 25.25 50.1875 C25.22267577 54.4637426 24.2681142 57.31431442 22 61 C24.88437779 59.70700306 26.87219421 58.34058637 29 56 C31.44302077 63.3290623 30.70012904 72.03467915 27.92578125 79.1875 C26.66241785 81.66092033 25.22701127 83.34770132 23 85 C22.34 85 21.68 85 21 85 C21 86.32 21 87.64 21 89 C9.12 89 -2.76 89 -15 89 C-15.33 88.01 -15.66 87.02 -16 86 C-17.48704906 84.79770502 -18.97719569 83.59632547 -20.52734375 82.4765625 C-24.31723081 78.67662269 -24.28827982 73.82466747 -24.4140625 68.73046875 C-24.44311172 67.70896477 -24.44311172 67.70896477 -24.4727478 66.66682434 C-24.53218132 64.50717407 -24.578782 62.34746943 -24.625 60.1875 C-24.66321328 58.71677456 -24.70226694 57.24607071 -24.7421875 55.77539062 C-24.83785183 52.18379211 -24.92201575 48.59203087 -25 45 C-21.18416621 45.65179251 -18.97118595 46.46898975 -16 49 C-16.34224609 47.53626953 -16.34224609 47.53626953 -16.69140625 46.04296875 C-16.97886719 44.77066406 -17.26632813 43.49835938 -17.5625 42.1875 C-17.85253906 40.92292969 -18.14257812 39.65835938 -18.44140625 38.35546875 C-19 35 -19 35 -18 32 C-14.73539027 33.80412643 -13.11070205 34.83394693 -11 38 C-10.89337674 32.88208358 -11.28832014 28.07071901 -12 23 C-7.32307692 24.47692308 -7.32307692 24.47692308 -5.6875 27.125 C-5.460625 27.74375 -5.23375 28.3625 -5 29 C-4.34 29 -3.68 29 -3 29 C-3.14133499 27.22880197 -3.28823208 25.45804713 -3.4375 23.6875 C-3.51871094 22.70136719 -3.59992188 21.71523438 -3.68359375 20.69921875 C-3.91812559 17.90624401 -3.91812559 17.90624401 -5 15 C-5.39702232 9.73945429 -4.7327998 6.51963043 -2 2 C-1.34 1.34 -0.68 0.68 0 0 Z " fill="#222223" transform="translate(119,23)"/>
<path d="M0 0 C2.46190873 1.06792828 3.8754043 2.3592773 5.76818848 4.26306152 C6.48606033 4.97793228 7.20393219 5.69280304 7.94355774 6.42933655 C8.71028305 7.20840866 9.47700836 7.98748077 10.26696777 8.79016113 C11.06595993 9.59102646 11.86495209 10.39189178 12.68815613 11.21702576 C14.38029384 12.91589022 16.06882769 14.6183507 17.75402832 16.32409668 C20.31388228 18.91487084 22.88402736 21.49504639 25.4564209 24.07336426 C27.10222306 25.72834702 28.74742443 27.38392749 30.39196777 29.04016113 C31.15262039 29.80506363 31.91327301 30.56996613 32.69697571 31.35804749 C33.42430405 32.09498337 34.15163239 32.83191925 34.90100098 33.59118652 C35.84553886 34.54596642 35.84553886 34.54596642 36.80915833 35.52003479 C38.70263531 37.53332259 40.51214724 39.58472995 42.31718445 41.67643738 C45.88795148 45.77719501 49.6633676 49.61623056 53.54040527 53.42590332 C54.61236397 54.48603386 54.61236397 54.48603386 55.70597839 55.56758118 C57.24251936 57.08704959 58.78011123 58.60545591 60.31866455 60.12288666 C63.58714025 63.34906172 66.84611214 66.58476668 70.10571289 69.81990433 C76.16240855 75.83093318 82.22298543 81.83792091 88.29968262 87.82873535 C92.53947663 92.0093302 96.76712185 96.20187075 100.98684692 100.40271759 C102.59639154 102.00048963 104.21046986 103.59370765 105.82907104 105.18230438 C108.08165074 107.39412476 110.31844652 109.62080038 112.55212402 111.85168457 C113.2273259 112.50733902 113.90252777 113.16299347 114.59819031 113.83851624 C115.20093277 114.44668686 115.80367523 115.05485748 116.42468262 115.68145752 C116.95483978 116.2057069 117.48499695 116.72995628 118.03121948 117.27009201 C119.02868652 118.88000488 119.02868652 118.88000488 118.97488117 120.77181911 C117.65348454 123.71598031 115.7707556 125.52243354 113.49357605 127.80952454 C113.01776826 128.29142343 112.54196047 128.77332232 112.05173427 129.26982421 C110.45438397 130.8838331 108.84649775 132.48691081 107.23840332 134.09020996 C106.09144078 135.24451098 104.94510363 136.3994337 103.79934692 137.55493164 C100.68456629 140.69195561 97.56018087 143.8192431 94.43331504 146.94421601 C91.8261559 149.55125562 89.22334877 152.16261915 86.62042361 154.77388495 C80.48239459 160.93115668 74.33621384 167.08020879 68.18518066 173.2244873 C61.83197199 179.5710479 55.49368269 185.93223797 49.16235799 192.30062371 C43.73093195 197.76269055 38.28994356 203.21510147 32.84122592 208.65991896 C29.58474263 211.91432965 26.3321904 215.17244564 23.08896446 218.44007301 C20.04090288 221.51030742 16.98113945 224.56836623 13.91179276 227.6173172 C12.78514065 228.74054291 11.66277351 229.86808491 10.54497337 231.00012016 C9.02279707 232.54034156 7.48616874 234.06447818 5.94474792 235.58540344 C5.08693568 236.44392819 4.22912344 237.30245295 3.34531689 238.1869936 C1.02868652 239.88000488 1.02868652 239.88000488 -0.97047234 239.93186188 C-3.76061836 238.46506146 -5.66527989 236.57075955 -7.90083313 234.34489441 C-8.38273202 233.86908662 -8.86463091 233.39327883 -9.3611328 232.90305263 C-10.97514169 231.30570233 -12.57821941 229.69781611 -14.18151855 228.08972168 C-15.33581957 226.94275914 -16.49074229 225.79642199 -17.64624023 224.65066528 C-20.7832642 221.53588465 -23.9105517 218.41149923 -27.03552461 215.2846334 C-29.64256422 212.67747426 -32.25392775 210.07466713 -34.86519355 207.47174197 C-41.02246528 201.33371295 -47.17151738 195.1875322 -53.3157959 189.03649902 C-59.66235649 182.68329034 -66.02354656 176.34500105 -72.39193231 170.01367635 C-77.85399914 164.58225031 -83.30641007 159.14126192 -88.75122756 153.69254428 C-92.00563824 150.43606099 -95.26375424 147.18350876 -98.53138161 143.94028282 C-101.60161601 140.89222124 -104.65967483 137.83245781 -107.70862579 134.76311111 C-108.83185151 133.63645901 -109.95939351 132.51409187 -111.09142876 131.39629173 C-112.63165016 129.87411543 -114.15578677 128.3374871 -115.67671204 126.79606628 C-116.53523679 125.93825404 -117.39376154 125.0804418 -118.27830219 124.19663525 C-119.97131348 121.88000488 -119.97131348 121.88000488 -119.92937183 119.78452396 C-118.83663924 117.61228668 -117.66389095 116.20612988 -115.9369812 114.49163818 C-115.28941864 113.84139679 -114.64185608 113.1911554 -113.97467041 112.52120972 C-113.2599054 111.81880157 -112.54514038 111.11639343 -111.80871582 110.3927002 C-111.05903534 109.64418793 -110.30935486 108.89567566 -109.53695679 108.1244812 C-107.05061014 105.64533611 -104.55391547 103.17688025 -102.05725098 100.70812988 C-100.32594479 98.98496125 -98.59537411 97.26105333 -96.86550903 95.53643799 C-92.30101801 90.98909125 -87.72804812 86.45037121 -83.15283203 81.91381836 C-75.8489004 74.66897643 -68.55741984 67.4116105 -61.26671219 60.15346527 C-58.72424658 57.62489595 -56.17796173 55.10022399 -53.631073 52.57611084 C-52.0573869 51.01245822 -50.48378435 49.44872152 -48.91027832 47.8848877 C-48.20765869 47.19057648 -47.50503906 46.49626526 -46.78112793 45.78091431 C-42.8435598 41.8608913 -39.10806457 37.82826049 -35.47929382 33.62081718 C-33.81052058 31.69438559 -32.08343679 29.84160045 -30.3026123 28.01843262 C-29.36177544 27.05350136 -29.36177544 27.05350136 -28.40193176 26.06907654 C-25.60284717 23.224762 -22.80124148 20.38306741 -19.99108887 17.54968262 C-18.50885098 16.05072221 -17.03202151 14.54639599 -15.5604248 13.0369873 C-13.42411873 10.8462621 -11.27213776 8.67213151 -9.11584473 6.50109863 C-8.1298101 5.48105995 -8.1298101 5.48105995 -7.12385559 4.44041443 C-6.50608749 3.82549637 -5.8883194 3.21057831 -5.25183105 2.57702637 C-4.44411003 1.75717506 -4.44411003 1.75717506 -3.62007141 0.92076111 C-1.97131348 -0.11999512 -1.97131348 -0.11999512 0 0 Z M-5.59075928 10.1050415 C-6.28169933 10.78684491 -6.28169933 10.78684491 -6.98659778 11.48242211 C-8.53464033 13.01375994 -10.07169487 14.55567565 -11.60900879 16.09777832 C-12.71390067 17.19533428 -13.81941507 18.29226386 -14.92550659 19.38861084 C-17.93244424 22.3732753 -20.92961197 25.36757238 -23.92448521 28.36433697 C-26.42212053 30.8620917 -28.92407695 33.35549593 -31.42594028 35.84901452 C-37.32574606 41.72956588 -43.2173171 47.61828112 -49.10412598 53.51184082 C-55.18539643 59.59975629 -61.28127934 65.67275652 -67.38437963 71.73878074 C-72.61713048 76.94088825 -77.84022063 82.1525588 -83.055722 87.37195992 C-86.1737745 90.49208522 -89.29552878 93.60827312 -92.42679596 96.7151413 C-95.36980204 99.63597101 -98.30061726 102.56849731 -101.22233963 105.51061249 C-102.29880058 106.5904995 -103.37957748 107.66610325 -104.46484756 108.73713684 C-105.94164013 110.19588024 -107.40230756 111.66904617 -108.85980225 113.14703369 C-110.09423002 114.3803927 -110.09423002 114.3803927 -111.35359573 115.63866806 C-113.16057933 117.68992234 -113.16057933 117.68992234 -112.99749088 119.88195705 C-111.60308787 122.596969 -109.81951906 124.41631555 -107.66398621 126.58174133 C-106.9870265 127.2678377 -106.9870265 127.2678377 -106.29639083 127.9677946 C-104.78195112 129.49888632 -103.25699347 131.01904302 -101.73181152 132.53942871 C-100.6439616 133.63461748 -99.55673705 134.73042773 -98.47009277 135.82681274 C-95.51646105 138.80268363 -92.55323241 141.76881873 -89.58751655 144.73264146 C-87.1145648 147.20547366 -84.64596617 149.68262937 -82.1772483 152.15968722 C-76.35564425 158.00053241 -70.52589216 163.83315796 -64.69128418 169.66101074 C-58.66526171 175.68038497 -52.65416712 181.71438142 -46.65002984 187.75557882 C-41.4988565 192.93739435 -36.33812187 198.10954998 -31.16965514 203.27411669 C-28.08084359 206.36085582 -24.99596772 209.4512926 -21.92041588 212.55124855 C-19.02994018 215.46389946 -16.12777215 218.36435858 -13.21601105 221.25572586 C-12.14741113 222.32089983 -11.08309396 223.39038959 -10.02334785 224.46437263 C-8.58030164 225.92546469 -7.12039042 227.36984352 -5.65959167 228.81318665 C-4.43924241 230.03460468 -4.43924241 230.03460468 -3.19423962 231.28069782 C-1.1572075 233.06927012 -1.1572075 233.06927012 1.02784538 232.90338898 C3.74691313 231.51264854 5.56365414 229.72954737 7.73042297 227.57267761 C8.18782055 227.12137114 8.64521813 226.67006467 9.11647624 226.20508224 C10.64756796 224.69064253 12.16772466 223.16568488 13.68811035 221.64050293 C14.78329912 220.55265301 15.87910937 219.46542845 16.97549438 218.37878418 C19.95136527 215.42515246 22.91750038 212.46192382 25.8813231 209.49620795 C28.3541553 207.02325621 30.83131101 204.55465758 33.30836886 202.08593971 C39.14921405 196.26433565 44.9818396 190.43458357 50.80969238 184.59997559 C56.82906661 178.57395312 62.86306307 172.56285853 68.90426046 166.55872124 C74.08607599 161.4075479 79.25823162 156.24681327 84.42279834 151.07834655 C87.50953746 147.989535 90.59997424 144.90465913 93.69993019 141.82910728 C96.6125811 138.93863159 99.51304022 136.03646355 102.4044075 133.12470245 C103.46958147 132.05610253 104.53907123 130.99178536 105.61305428 129.93203926 C107.07414633 128.48899304 108.51852516 127.02908183 109.96186829 125.56828308 C111.18328632 124.34793381 111.18328632 124.34793381 112.42937946 123.10293102 C114.25970493 121.04590342 114.25970493 121.04590342 113.92348766 118.73933125 C112.53480131 115.85375027 110.35782434 114.05033785 108.02868652 111.88000488 C104.81005986 108.69180002 101.63330976 105.4633145 98.45446777 102.23547363 C96.75016776 100.51269167 95.04573724 98.7900388 93.34118652 97.06750488 C92.47429199 96.18385254 91.60739746 95.3002002 90.7142334 94.38977051 C89.88601074 93.55510254 89.05778809 92.72043457 88.20446777 91.86047363 C87.45076904 91.09630127 86.69707031 90.33212891 85.92053223 89.5447998 C84.19845411 87.65979777 84.19845411 87.65979777 82.02868652 87.88000488 C81.68837402 87.04469238 81.68837402 87.04469238 81.34118652 86.19250488 C79.6802827 83.26615053 77.41316449 81.21203672 75.02868652 78.88000488 C73.68356936 77.53762344 72.33994361 76.19374665 70.99743652 74.84875488 C70.26911621 74.12043457 69.5407959 73.39211426 68.79040527 72.64172363 C65.20316569 69.05448405 61.61592611 65.46724447 58.02868652 61.88000488 C57.25549072 61.10825928 56.48229492 60.33651367 55.68566895 59.54138184 C53.19793704 57.04953533 50.71977048 54.548645 48.24446106 52.04447937 C45.76610724 49.53933393 43.28240072 47.03952338 40.79846191 44.53991699 C39.48646984 43.21777854 38.17626535 41.89386398 36.86779785 40.5682373 C34.97424884 38.65056062 33.0744284 36.7393008 31.17321777 34.82922363 C30.5867598 34.23244308 30.00030182 33.63566254 29.39607239 33.02079773 C27.97773663 31.60206833 26.50764624 30.23541905 25.02868652 28.88000488 C24.36868652 28.88000488 23.70868652 28.88000488 23.02868652 28.88000488 C22.77474121 28.28703613 22.5207959 27.69406738 22.25915527 27.08312988 C20.89242278 24.6360279 19.51125671 23.38652535 17.34118652 21.63000488 C13.10956413 18.0588535 9.60716305 14.08836631 6.02868652 9.88000488 C3.94731997 7.45928276 3.94731997 7.45928276 2.02868652 5.88000488 C-2.03107497 5.88000488 -2.74341766 7.27057732 -5.59075928 10.1050415 Z " fill="#FBFBFB" transform="translate(119.9713134765625,0.1199951171875)"/>
<path d="M0 0 C2.63405741 1.24645918 4.27341844 3.02086113 6.28095722 5.1223402 C7.4643166 6.34630505 7.4643166 6.34630505 8.67158222 7.59499645 C9.74666035 8.72228161 9.74666035 8.72228161 10.84345722 9.8723402 C11.73033222 10.7592152 12.61720722 11.6460902 13.53095722 12.5598402 C14.29408222 13.3229652 15.05720722 14.0860902 15.84345722 14.8723402 C16.38228535 15.3879652 16.92111347 15.9035902 17.47626972 16.4348402 C18.96784499 17.87785256 20.40968491 19.37188081 21.84345722 20.8723402 C21.84345722 21.5323402 21.84345722 22.1923402 21.84345722 22.8723402 C22.37269794 23.07560925 22.90193867 23.27887829 23.44721699 23.488307 C26.89198132 25.47795234 29.40775741 28.19159871 32.18330097 31.01687145 C33.08925762 31.92707294 33.08925762 31.92707294 34.01351643 32.85566235 C35.94075258 34.79406727 37.86092889 36.73929814 39.78095722 38.6848402 C41.06890523 39.98282627 42.35731193 41.28035737 43.6461916 42.57741833 C46.02331992 44.9708466 48.39772801 47.36690334 50.76899433 49.76613903 C53.45055614 52.47820192 56.14405438 55.17802045 58.84345722 57.8723402 C71.03095722 70.0598402 71.03095722 70.0598402 73.01533222 72.0520277 C74.14020458 73.17209291 75.27383345 74.28354126 76.42158222 75.3801527 C78.70124983 77.56810955 79.82203508 78.80807378 80.84345722 81.8723402 C82.1623273 82.56718115 83.49829622 83.229873 84.84345722 83.8723402 C86.18727644 85.04608818 87.48420482 86.27470612 88.74189472 87.54030895 C89.46892597 88.2692738 90.19595722 88.99823864 90.94501972 89.74929333 C91.6952541 90.5117738 92.44548847 91.27425426 93.21845722 92.0598402 C93.96095722 92.80298473 94.70345722 93.54612926 95.46845722 94.31179333 C99.33898762 98.2130965 103.06176282 102.16759028 106.55341816 106.41286755 C108.42454434 108.52974724 110.57395748 110.20359039 112.84345722 111.8723402 C112.29951873 115.89343209 110.34643116 117.75087741 107.53612995 120.57407665 C106.85917024 121.26017302 106.85917024 121.26017302 106.16853458 121.96012992 C104.65409487 123.49122164 103.12913722 125.01137834 101.60395527 126.53176403 C100.51610535 127.6269528 99.42888079 128.72276304 98.34223652 129.81914806 C95.3886048 132.79501895 92.42537616 135.76115405 89.45966029 138.72497678 C86.98670855 141.19780898 84.51810992 143.67496469 82.04939204 146.15202254 C76.22778799 151.99286773 70.3980359 157.82549328 64.56342793 163.65334606 C58.53740546 169.67272029 52.52631087 175.70671674 46.52217358 181.74791414 C41.37100024 186.92972967 36.21026561 192.1018853 31.04179889 197.26645201 C27.95298734 200.35319114 24.86811147 203.44362792 21.79255962 206.54358387 C18.90208393 209.45623478 15.99991589 212.3566939 13.08815479 215.24806118 C12.01955487 216.31323515 10.9552377 217.38272491 9.8954916 218.45670795 C8.45244538 219.91780001 6.99253417 221.36217884 5.53173542 222.80552197 C4.71816924 223.61980065 3.90460306 224.43407934 3.06638336 225.27303314 C0.84345722 226.8723402 0.84345722 226.8723402 -1.15570164 226.8957243 C-3.87476939 225.50498386 -5.6915104 223.72188269 -7.85827923 221.56501293 C-8.54437559 220.88805322 -8.54437559 220.88805322 -9.24433249 220.19741756 C-10.77542421 218.68297785 -12.29558091 217.1580202 -13.81596661 215.63283825 C-14.91115538 214.54498833 -16.00696562 213.45776377 -17.10335064 212.3711195 C-20.07922152 209.41748778 -23.04535663 206.45425914 -26.00917935 203.48854327 C-28.48201155 201.01559153 -30.95916727 198.5469929 -33.43622512 196.07827502 C-39.2770703 190.25667097 -45.10969586 184.42691888 -50.93754864 178.59231091 C-56.95692286 172.56628844 -62.99091932 166.55519385 -69.03211671 160.55105656 C-74.21393225 155.39988322 -79.38608787 150.23914859 -84.55065459 145.07068187 C-87.63739371 141.98187032 -90.7278305 138.89699445 -93.82778645 135.8214426 C-96.74043736 132.93096691 -99.64089648 130.02879887 -102.53226376 127.11703777 C-103.59743772 126.04843785 -104.66692749 124.98412068 -105.74091053 123.92437458 C-107.20200258 122.48132836 -108.64638141 121.02141715 -110.08972454 119.5606184 C-110.90400323 118.74705222 -111.71828192 117.93348604 -112.55723572 117.09526634 C-114.15654278 114.8723402 -114.15654278 114.8723402 -114.17992687 112.87318134 C-112.78918643 110.15411359 -111.00608527 108.33737258 -108.84921551 106.17060375 C-108.39790903 105.71320617 -107.94660256 105.2558086 -107.48162013 104.78455049 C-105.96718042 103.25345877 -104.44222277 101.73330207 -102.91704082 100.21291637 C-101.82919091 99.1177276 -100.74196635 98.02191736 -99.65532207 96.92553234 C-96.70169035 93.94966146 -93.73846171 90.98352635 -90.77274585 88.01970363 C-88.29979411 85.54687143 -85.83119548 83.06971571 -83.3624776 80.59265786 C-77.54087355 74.75181268 -71.71112146 68.91918712 -65.87651348 63.09133434 C-59.85049102 57.07196012 -53.83939643 51.03796366 -47.83525914 44.99676627 C-42.6840858 39.81495073 -37.52335117 34.64279511 -32.35488445 29.47822839 C-29.26607289 26.39148927 -26.18119702 23.30105248 -23.10564518 20.20109653 C-20.21516949 17.28844562 -17.31300145 14.38798651 -14.40124035 11.49661922 C-13.33264043 10.43144526 -12.26832326 9.36195549 -11.20857716 8.28797245 C-9.76553094 6.8268804 -8.30561973 5.38250157 -6.84482098 3.93915844 C-6.0312548 3.12487975 -5.21768862 2.31060106 -4.37946892 1.47164726 C-2.15654278 -0.1276598 -2.15654278 -0.1276598 0 0 Z M-4.3538208 4.44041252 C-5.55594349 5.63970752 -5.55594349 5.63970752 -6.78235149 6.86323071 C-7.7064381 7.77321819 -8.63052471 8.68320568 -9.58261395 9.62076855 C-10.59945198 10.64732896 -11.61602954 11.67414742 -12.63237286 12.70119762 C-13.70742816 13.76948079 -14.78354491 14.83669669 -15.86064434 15.90291882 C-18.78734854 18.80677531 -21.69795167 21.72629189 -24.60532117 24.64949107 C-27.64526018 27.70206068 -30.6973471 30.7424438 -33.74753094 33.78477001 C-38.86841027 38.89654451 -43.97863798 44.01879039 -49.08305645 49.14699841 C-54.9904611 55.08161576 -60.91566371 60.9980048 -66.85043508 66.90524501 C-71.939081 71.97122471 -77.01794745 77.04685408 -82.0887205 82.13072377 C-85.12005784 85.16986928 -88.15470282 88.20550464 -91.19817829 91.23249912 C-94.05852704 94.07843867 -96.90643215 96.93626529 -99.74506664 99.80385876 C-100.79089306 100.85631495 -101.84103201 101.9045052 -102.89566135 102.94814014 C-104.33051136 104.36940092 -105.74860064 105.8075244 -107.16565228 107.24653149 C-107.96518228 108.04794662 -108.76471228 108.84936174 -109.58847046 109.67506218 C-111.34671709 111.69384231 -111.34671709 111.69384231 -111.17211819 113.87276077 C-109.80069885 116.57296588 -108.04573637 118.35130686 -105.89822674 120.49141979 C-104.97970928 121.41406124 -104.06119183 122.33670269 -103.11484051 123.28730297 C-102.08908442 124.30244191 -101.06318544 125.31743646 -100.03715801 126.33230114 C-98.96248825 127.40612471 -97.88847861 128.48060926 -96.8150816 129.55570507 C-93.89836022 132.47328812 -90.97247335 135.38152112 -88.04487777 138.28818703 C-84.98723478 141.32709209 -81.93807018 144.37447965 -78.88800335 147.42098522 C-73.11059904 153.1890606 -67.32558908 158.94944523 -61.53782088 164.70711923 C-54.94918834 171.2622342 -48.36905966 177.82585706 -41.7896384 184.3902154 C-28.25472674 197.89375881 -14.7091503 211.38655821 -1.15654278 224.8723402 C4.95705606 219.80446788 10.57665448 214.30750035 16.2008791 208.70778942 C17.22798067 207.68860465 18.25525812 206.66959708 19.28269672 205.65075207 C22.62955974 202.32988329 25.97117376 199.00375986 29.31220722 195.6770277 C30.46595378 194.52864639 31.61970646 193.38027123 32.77346516 192.23190212 C37.56780497 187.45913992 42.36072624 182.68496075 47.14993763 177.90705204 C54.00483168 171.06844823 60.86811928 164.23851919 67.74319124 157.42019928 C72.58511831 152.6168865 77.41750357 147.80410749 82.24281073 142.98409951 C85.12333996 140.10722962 88.00793248 137.23472459 90.90276814 134.37224483 C93.61907135 131.68587945 96.32341539 128.98804142 99.01886845 126.28076077 C100.0114775 125.28792992 101.00840441 124.29939517 102.00982761 123.31545544 C103.37219826 121.97559461 104.71790264 120.61884909 106.06257343 119.2612257 C106.82133526 118.50577402 107.58009708 117.75032234 108.36185169 116.97197819 C110.07547294 115.00571105 110.07547294 115.00571105 109.72038746 112.71522236 C108.4167868 109.97568586 106.22910384 108.71579441 103.84345722 106.8723402 C102.92408672 105.8089088 102.02811159 104.72482614 101.15595722 103.6223402 C100.39283222 102.7148402 99.62970722 101.8073402 98.84345722 100.8723402 C98.18345722 100.8723402 97.52345722 100.8723402 96.84345722 100.8723402 C96.51345722 99.8823402 96.18345722 98.8923402 95.84345722 97.8723402 C95.18345722 97.8723402 94.52345722 97.8723402 93.84345722 97.8723402 C93.44126972 96.9132777 93.44126972 96.9132777 93.03095722 95.9348402 C91.9567797 93.54102334 91.9567797 93.54102334 88.84345722 92.8723402 C88.17679056 91.53900687 87.51012389 90.20567354 86.84345722 88.8723402 C85.22121183 87.16240587 83.54932297 85.49886336 81.84345722 83.8723402 C76.84345722 78.8723402 76.84345722 78.8723402 75.15595722 77.0598402 C73.89127451 75.64870243 73.89127451 75.64870243 71.84345722 75.8723402 C71.84345722 75.2123402 71.84345722 74.5523402 71.84345722 73.8723402 C71.18345722 73.8723402 70.52345722 73.8723402 69.84345722 73.8723402 C69.51345722 72.8823402 69.18345722 71.8923402 68.84345722 70.8723402 C68.18345722 70.8723402 67.52345722 70.8723402 66.84345722 70.8723402 C66.84345722 70.2123402 66.84345722 69.5523402 66.84345722 68.8723402 C65.19342894 67.51847085 63.52601852 66.18555878 61.84345722 64.8723402 C61.51345722 64.2123402 61.18345722 63.5523402 60.84345722 62.8723402 C60.18345722 62.8723402 59.52345722 62.8723402 58.84345722 62.8723402 C58.84345722 62.2123402 58.84345722 61.5523402 58.84345722 60.8723402 C58.18345722 60.8723402 57.52345722 60.8723402 56.84345722 60.8723402 C56.61658222 60.2948402 56.38970722 59.7173402 56.15595722 59.1223402 C54.51146075 56.30320339 52.40791052 54.85979151 49.84345722 52.8723402 C49.18345722 51.8823402 48.52345722 50.8923402 47.84345722 49.8723402 C47.18345722 49.8723402 46.52345722 49.8723402 45.84345722 49.8723402 C45.51345722 48.8823402 45.18345722 47.8923402 44.84345722 46.8723402 C43.44566166 45.48976561 43.44566166 45.48976561 41.71845722 44.1848402 C38.94946185 41.90848818 36.59802159 39.54490505 34.28095722 36.8098402 C32.20317389 34.3593603 30.16611519 32.1904438 27.65595722 30.1848402 C24.94210349 27.95344936 23.02610464 25.60064948 20.84345722 22.8723402 C20.18345722 22.8723402 19.52345722 22.8723402 18.84345722 22.8723402 C18.51345722 21.8823402 18.18345722 20.8923402 17.84345722 19.8723402 C15.173261 16.96653843 12.30188511 14.39952504 9.28095722 11.8723402 C7.04766338 10.00159406 5.4704761 8.39279304 3.65595722 6.0598402 C2.05368555 3.81895601 2.05368555 3.81895601 0.01928902 2.9861908 C-2.31024718 2.63788913 -2.31024718 2.63788913 -4.3538208 4.44041252 Z " fill="#432627" transform="translate(121.15654277801514,6.127659797668457)"/>
<path d="M0 0 C3.40320742 1.01176437 4.75725331 1.64843582 6.8125 4.625 C7.204375 5.40875 7.59625 6.1925 8 7 C8.33 5.02 8.66 3.04 9 1 C9.66 1 10.32 1 11 1 C13.13586678 4.20380017 13.23132175 5.01939967 13.125 8.6875 C13.10695312 9.49574219 13.08890625 10.30398437 13.0703125 11.13671875 C13.04710937 11.75160156 13.02390625 12.36648437 13 13 C13.99 12.01 14.98 11.02 16 10 C17 11 17 11 17.0625 13.5 C17.041875 14.325 17.02125 15.15 17 16 C17 16.33 17 16.66 17 17 C17.33 17 17.66 17 18 17 C18.49046322 22.39509537 18.49046322 22.39509537 16.125 25.3125 C12.42479114 28.25090115 9.88813315 28.21897955 5.1875 28.3125 C3.35251953 28.36857422 3.35251953 28.36857422 1.48046875 28.42578125 C-2.5737799 27.92980695 -4.14043139 26.84899719 -7 24 C-8.20272819 21.59454362 -8.10071472 20.05003047 -8.0625 17.375 C-8.05347656 16.55773437 -8.04445313 15.74046875 -8.03515625 14.8984375 C-8.02355469 14.27195312 -8.01195313 13.64546875 -8 13 C-5 16.75 -5 16.75 -5 19 C-4.34 19 -3.68 19 -3 19 C-3.33 15.37 -3.66 11.74 -4 8 C0.875 10.75 0.875 10.75 2 13 C1.48041715 8.62065881 0.94324258 4.31196609 0 0 Z " fill="#F1F1F3" transform="translate(118,80)"/>
<path d="M0 0 C3.97031653 0.54017912 5.72196006 2.40738974 8.4375 5.25 C9.22640625 6.06597656 10.0153125 6.88195312 10.828125 7.72265625 C11.54484375 8.47417969 12.2615625 9.22570313 13 10 C13.886875 10.886875 14.77375 11.77375 15.6875 12.6875 C16.450625 13.450625 17.21375 14.21375 18 15 C18.53882813 15.515625 19.07765625 16.03125 19.6328125 16.5625 C21.12438777 18.00551235 22.56622769 19.49954061 24 21 C24 21.66 24 22.32 24 23 C24.52924072 23.20326904 25.05848145 23.40653809 25.60375977 23.6159668 C29.0485241 25.60561214 31.56430019 28.3192585 34.33984375 31.14453125 C34.94381485 31.75133224 35.54778595 32.35813324 36.1700592 32.98332214 C38.09729535 34.92172707 40.01747166 36.86695794 41.9375 38.8125 C43.22544801 40.11048607 44.51385471 41.40801717 45.80273438 42.70507812 C48.17986269 45.0985064 50.55427079 47.49456313 52.92553711 49.89379883 C55.60709892 52.60586172 58.30059716 55.30568024 61 58 C73.1875 70.1875 73.1875 70.1875 75.171875 72.1796875 C76.29674736 73.29975271 77.43037623 74.41120105 78.578125 75.5078125 C80.85779261 77.69576934 81.97857786 78.93573357 83 82 C84.32140684 82.69000449 85.65700881 83.35300936 87 84 C88.41499193 85.25552241 89.78183421 86.56640745 91.109375 87.9140625 C92.24052734 89.05488281 92.24052734 89.05488281 93.39453125 90.21875 C94.17183594 91.0128125 94.94914062 91.806875 95.75 92.625 C96.54277344 93.42679687 97.33554688 94.22859375 98.15234375 95.0546875 C100.10614493 97.03202846 102.05512103 99.01388909 104 101 C103.34 101.99 102.68 102.98 102 104 C101.67 103.01 101.34 102.02 101 101 C100.34 101 99.68 101 99 101 C97.73828125 99.6796875 97.73828125 99.6796875 96.3125 97.875 C94.16064047 95.26540996 91.98292451 93.02864089 89.375 90.875 C86.4950012 88.49394836 84.28483597 85.97028676 82 83 C79.41649107 80.29046625 77.11856984 78.07904656 74 76 C74 75.34 74 74.68 74 74 C73.34 74 72.68 74 72 74 C70.375 72.625 70.375 72.625 69 71 C69 70.34 69 69.68 69 69 C67.515 68.505 67.515 68.505 66 68 C66 67.34 66 66.68 66 66 C64.515 65.505 64.515 65.505 63 65 C63 64.34 63 63.68 63 63 C62.34 63 61.68 63 61 63 C61 62.34 61 61.68 61 61 C60.34 61 59.68 61 59 61 C58.443125 60.29875 57.88625 59.5975 57.3125 58.875 C55.4401998 56.54727543 53.8310232 54.93156585 51.5625 53.0625 C49.2203632 51.12072847 47.21597503 49.18596886 45.3125 46.8125 C43.31325662 44.38098778 41.49277217 42.84649791 39 41 C39 40.34 39 39.68 39 39 C38.4225 38.773125 37.845 38.54625 37.25 38.3125 C34.42085466 36.66216522 33.01725404 34.56741423 31 32 C30.21625 31.38125 29.4325 30.7625 28.625 30.125 C25.84616766 27.87546906 23.74532679 25.45348711 21.4609375 22.72265625 C18.27973968 18.9715647 14.70446534 15.71886127 11 12.5 C1.85020024 4.54140058 1.85020024 4.54140058 0 0 Z " fill="#404041" transform="translate(119,6)"/>
<path d="M0 0 C0.99 0.33 1.98 0.66 3 1 C-32.97 36.97 -68.94 72.94 -106 110 C-106.33 109.01 -106.66 108.02 -107 107 C-71.69 71.69 -36.38 36.38 0 0 Z " fill="#2D2C2C" transform="translate(118,7)"/>
<path d="M0 0 C2.31 0 4.62 0 7 0 C7 4.62 7 9.24 7 14 C7.99 14 8.98 14 10 14 C10 15.32 10 16.64 10 18 C9.01 18 8.02 18 7 18 C7 19.98 7 21.96 7 24 C5.35 24 3.7 24 2 24 C1.67 22.35 1.34 20.7 1 19 C-2.3 18.67 -5.6 18.34 -9 18 C-8.41043592 13.52773536 -6.63917443 10.01950842 -4.375 6.1875 C-4.05660156 5.59001953 -3.73820312 4.99253906 -3.41015625 4.37695312 C-2.3984375 2.66796875 -2.3984375 2.66796875 0 0 Z " fill="#2A131A" transform="translate(121,185)"/>
<path d="M0 0 C72.93 0 145.86 0 221 0 C220.01 0.99 219.02 1.98 218 3 C218 2.34 218 1.68 218 1 C147.38 1 76.76 1 4 1 C4.33 2.32 4.66 3.64 5 5 C3.35 3.35 1.7 1.7 0 0 Z " fill="#BD1024" transform="translate(10,120)"/>
<path d="M0 0 C2.31 0 4.62 0 7 0 C7 4.62 7 9.24 7 14 C6.67 14 6.34 14 6 14 C6 9.71 6 5.42 6 1 C4.35 1 2.7 1 1 1 C1.12375 2.2684375 1.12375 2.2684375 1.25 3.5625 C0.92462977 8.03634062 -0.59932129 10.24893952 -3 14 C-1.35 14 0.3 14 2 14 C1.67 15.32 1.34 16.64 1 18 C-2.3 18 -5.6 18 -9 18 C-8.41043592 13.52773536 -6.63917443 10.01950842 -4.375 6.1875 C-4.05660156 5.59001953 -3.73820312 4.99253906 -3.41015625 4.37695312 C-2.3984375 2.66796875 -2.3984375 2.66796875 0 0 Z " fill="#370D13" transform="translate(121,185)"/>
<path d="M0 0 C3.97031653 0.54017912 5.72196006 2.40738974 8.4375 5.25 C9.22640625 6.06597656 10.0153125 6.88195312 10.828125 7.72265625 C11.54484375 8.47417969 12.2615625 9.22570313 13 10 C13.886875 10.886875 14.77375 11.77375 15.6875 12.6875 C16.450625 13.450625 17.21375 14.21375 18 15 C18.53882813 15.515625 19.07765625 16.03125 19.6328125 16.5625 C21.12438777 18.00551235 22.56622769 19.49954061 24 21 C24 21.66 24 22.32 24 23 C25.32 23.66 26.64 24.32 28 25 C28 25.99 28 26.98 28 28 C27.34 28 26.68 28 26 28 C24.66796875 26.64453125 24.66796875 26.64453125 23.1875 24.8125 C19.44583822 20.31348981 15.41562169 16.33679488 11 12.5 C1.85020024 4.54140058 1.85020024 4.54140058 0 0 Z " fill="#343434" transform="translate(119,6)"/>
<path d="M0 0 C6.03331362 4.98404168 11.5184171 10.41915303 17 16 C16.34 16.99 15.68 17.98 15 19 C14.67 18.01 14.34 17.02 14 16 C13.34 16 12.68 16 12 16 C10.73828125 14.6796875 10.73828125 14.6796875 9.3125 12.875 C6.21640431 9.12146177 2.77728464 6.05088375 -1 3 C-0.67 2.01 -0.34 1.02 0 0 Z " fill="#404042" transform="translate(206,91)"/>
<path d="M0 0 C1 3 1 3 1.27734375 4.890625 C2.32203074 7.93998162 4.25190163 9.53703255 6.5625 11.75 C7.38878906 12.54921875 8.21507812 13.3484375 9.06640625 14.171875 C10.02353516 15.07679688 10.02353516 15.07679688 11 16 C10.34 16.66 9.68 17.32 9 18 C6.96339574 16.09797311 4.94668664 14.18061509 2.9375 12.25 C2.06641602 11.44175781 2.06641602 11.44175781 1.17773438 10.6171875 C-0.47265625 9.015625 -0.47265625 9.015625 -3 6 C-2.68780072 3.03182417 -2.14936622 2.14936622 0 0 Z " fill="#432B2C" transform="translate(10,115)"/>
<path d="M0 0 C2.35953094 2.35953094 2.49141413 3.77895617 3 7 C2.34 7 1.68 7 1 7 C1 10.3 1 13.6 1 17 C0.67 17 0.34 17 0 17 C-0.53251766 15.08654673 -1.05059483 13.1690705 -1.5625 11.25 C-1.85253906 10.18265625 -2.14257812 9.1153125 -2.44140625 8.015625 C-2.97098494 5.15664073 -2.98370862 3.68402617 -2 1 C-1.34 1.33 -0.68 1.66 0 2 C0 1.34 0 0.68 0 0 Z " fill="#484848" transform="translate(121,32)"/>
<path d="M0 0 C10.05645161 6.31451613 10.05645161 6.31451613 11.8125 11.3125 C11.874375 11.869375 11.93625 12.42625 12 13 C11.01 13.66 10.02 14.32 9 15 C8.6596875 13.63875 8.6596875 13.63875 8.3125 12.25 C6.79421669 8.49044133 5.14656863 7.43859069 2 5 C0.6875 2.25 0.6875 2.25 0 0 Z " fill="#323133" transform="translate(222,108)"/>
<path d="M0 0 C4.25742137 0.47304682 6.25705098 2.8863822 9 6 C9.33 6.99 9.66 7.98 10 9 C12.00016466 10.20882096 12.00016466 10.20882096 14 11 C13.67 11.99 13.34 12.98 13 14 C8.15816248 10.08928508 3.75347544 5.99088493 0 1 C0 0.67 0 0.34 0 0 Z " fill="#323234" transform="translate(192,79)"/>
<path d="M0 0 C4.10447392 0.51776621 5.95699523 2.64627444 8.75 5.5625 C9.94882813 6.80193359 9.94882813 6.80193359 11.171875 8.06640625 C11.77515625 8.70449219 12.3784375 9.34257812 13 10 C12.01 10.66 11.02 11.32 10 12 C9.61328125 11.54109375 9.2265625 11.0821875 8.828125 10.609375 C6.49505127 7.86050595 4.17609387 5.17609387 1.625 2.625 C1.08875 2.08875 0.5525 1.5525 0 1 C0 0.67 0 0.34 0 0 Z " fill="#3D3D3D" transform="translate(119,6)"/>
<path d="M0 0 C0.33 0 0.66 0 1 0 C1 2.97 1 5.94 1 9 C-0.65 9 -2.3 9 -4 9 C-2.80100302 5.9168649 -1.52299523 2.93720508 0 0 Z " fill="#A11624" transform="translate(122,190)"/>
<path d="M0 0 C1.14926266 0.95421808 2.29430541 1.91352045 3.4375 2.875 C4.07558594 3.40867187 4.71367187 3.94234375 5.37109375 4.4921875 C7 6 7 6 8 8 C7.01 8.33 6.02 8.66 5 9 C3.5 7.625 3.5 7.625 2 6 C2 5.34 2 4.68 2 4 C1.01 3.67 0.02 3.34 -1 3 C-0.67 2.01 -0.34 1.02 0 0 Z " fill="#4A4A4C" transform="translate(186,71)"/>
<path d="M0 0 C4.62 0 9.24 0 14 0 C14 0.33 14 0.66 14 1 C10.7 1 7.4 1 4 1 C4.33 2.32 4.66 3.64 5 5 C3.35 3.35 1.7 1.7 0 0 Z " fill="#B10C1E" transform="translate(10,120)"/>
<path d="M0 0 C0.99 0.495 0.99 0.495 2 1 C2.96070434 3.88211302 3.10581883 5.69850044 3.0625 8.6875 C3.05347656 9.49574219 3.04445313 10.30398437 3.03515625 11.13671875 C3.02355469 11.75160156 3.01195313 12.36648437 3 13 C2.67 13 2.34 13 2 13 C-0.28571429 4.57142857 -0.28571429 4.57142857 0 0 Z " fill="#CBCBCD" transform="translate(119,36)"/>
<path d="M0 0 C1.65 1.65 3.3 3.3 5 5 C4.01 5.33 3.02 5.66 2 6 C1.01 5.01 0.02 4.02 -1 3 C-0.67 2.01 -0.34 1.02 0 0 Z " fill="#4D4D4D" transform="translate(127,12)"/>
</svg>
